<?xml version="1.0" encoding="utf-8"?>
<!-- Generator: Adobe Illustrator 15.0.0, SVG Export Plug-In . SVG Version: 6.00 Build 0)  -->
<!DOCTYPE svg PUBLIC "-//W3C//DTD SVG 1.1//EN" "http://www.w3.org/Graphics/SVG/1.1/DTD/svg11.dtd">
<svg version="1.1" id="Layer_1" xmlns="http://www.w3.org/2000/svg" xmlns:xlink="http://www.w3.org/1999/xlink" x="0px" y="0px"
	 width="191.721px" height="145.209px" viewBox="0 0 191.721 145.209" enable-background="new 0 0 191.721 145.209"
	 xml:space="preserve">
<g id="Layer_4">
	<path fill="#FFFFFF" d="M188.404,0.52l-6.448,6.449l-6.449-6.449c-0.754-0.754-1.982-0.748-2.744,0.014
		c-0.762,0.762-0.768,1.99-0.014,2.744l7.842,7.842c0.356,0.357,0.819,0.537,1.287,0.555c0.024,0,0.051,0.006,0.078,0.006
		c0.024,0,0.051-0.006,0.077-0.006c0.469-0.018,0.931-0.197,1.285-0.555l7.845-7.842c0.752-0.754,0.746-1.98-0.017-2.744
		C190.382-0.228,189.156-0.234,188.404,0.52z"/>
</g>
<g id="Layer_2">
	<g>
		<g>
			<path fill="#FFFFFF" d="M3.903,133.539H0v-2.293h10.446v2.293H6.545v11.464H3.903V133.539z"/>
			<path fill="#FFFFFF" d="M12.229,131.246h8.559v2.293h-5.915v3.325h5.454v2.294h-5.454v3.552h5.915v2.293h-8.559V131.246z
				 M15.144,128.954c0.986-0.6,1.952-1.198,2.79-1.839l0.987,1.528c-0.944,0.683-1.72,1.137-2.854,1.715L15.144,128.954z"/>
			<path fill="#FFFFFF" d="M22.883,135.024c0-2.519,1.49-3.984,4.973-3.984c1.302,0,2.644,0.165,3.797,0.455l-0.293,2.251
				c-1.133-0.207-2.455-0.351-3.42-0.351c-1.824,0-2.412,0.619-2.412,2.086v5.289c0,1.465,0.588,2.084,2.412,2.084
				c0.965,0,2.287-0.146,3.42-0.352l0.293,2.252c-1.153,0.289-2.495,0.453-3.797,0.453c-3.481,0-4.973-1.465-4.973-3.984V135.024z"
				/>
			<path fill="#FFFFFF" d="M36.434,134.572v10.431h-2.579v-13.757h3.522l5.309,10.453v-10.453h2.58v13.757h-3.522L36.434,134.572z"
				/>
			<path fill="#FFFFFF" d="M50.844,145.003h-2.645v-13.757h2.645V145.003z"/>
			<path fill="#FFFFFF" d="M53.465,135.024c0-2.519,1.488-3.984,4.971-3.984c1.301,0,2.646,0.165,3.799,0.455l-0.295,2.251
				c-1.133-0.207-2.453-0.351-3.418-0.351c-1.826,0-2.414,0.619-2.414,2.086v5.289c0,1.465,0.588,2.084,2.414,2.084
				c0.965,0,2.285-0.146,3.418-0.352l0.295,2.252c-1.153,0.289-2.498,0.453-3.799,0.453c-3.481,0-4.971-1.465-4.971-3.984V135.024z"
				/>
			<path fill="#FFFFFF" d="M74.379,140.976c0,2.293-1.342,4.233-5.287,4.233c-3.943,0-5.287-1.94-5.287-4.233v-5.701
				c0-2.291,1.344-4.233,5.287-4.233c3.945,0,5.287,1.942,5.287,4.233V140.976z M66.449,140.831c0,1.301,0.67,2.086,2.643,2.086
				s2.645-0.785,2.645-2.086v-5.412c0-1.3-0.672-2.086-2.645-2.086s-2.643,0.786-2.643,2.086V140.831z"/>
			<path fill="#FFFFFF" d="M82.748,143.908h6.291v1.095h-7.531v-13.757h1.24V143.908z"/>
			<path fill="#FFFFFF" d="M93.088,145.003H91.85v-13.757h1.238V145.003z"/>
			<path fill="#FFFFFF" d="M100.471,145.209c-1.217,0-2.748-0.206-3.943-0.661l0.229-0.99c1.26,0.373,2.539,0.558,3.756,0.558
				c2.394,0,3.043-0.701,3.043-2.457c0-2.128-0.021-2.355-3.127-3.058c-3.377-0.765-3.754-1.363-3.754-4.131
				c0-2.252,0.838-3.43,4.342-3.43c1.217,0,2.666,0.206,3.609,0.477l-0.148,1.031c-1.026-0.226-2.328-0.412-3.418-0.412
				c-2.77,0-3.147,0.661-3.147,2.374c0,2.23,0.063,2.335,3,3.058c3.672,0.908,3.883,1.427,3.883,4.027
				C104.793,143.847,104.016,145.209,100.471,145.209z"/>
			<path fill="#FFFFFF" d="M108.125,145.003v-13.757h5.246c1.887,0,2.998,0.89,2.998,2.707v1.651c0,1.095-0.461,1.817-1.595,2.23
				c1.093,0.146,2.035,1.032,2.035,2.562v1.797c0,1.899-1.406,2.809-3.209,2.809H108.125z M115.131,133.787
				c0-0.95-0.545-1.465-1.74-1.465h-4.026v5.101h3.606c1.533,0,2.16-0.785,2.16-1.879V133.787L115.131,133.787z M115.573,140.438
				c0-1.156-0.691-1.939-2.308-1.939h-3.901v5.432h4.258c1.321,0,1.951-0.641,1.951-1.734V140.438z"/>
			<path fill="#FFFFFF" d="M124.297,145.209c-3.586,0-4.887-1.733-4.887-4.089v-5.991c0-2.353,1.301-4.089,4.887-4.089
				c3.588,0,4.889,1.736,4.889,4.089v5.991C129.186,143.476,127.885,145.209,124.297,145.209z M127.948,141.077v-5.905
				c0-1.963-0.964-3.036-3.65-3.036s-3.65,1.073-3.65,3.036v5.905c0,1.964,0.965,3.037,3.65,3.037
				C126.985,144.114,127.948,143.041,127.948,141.077z"/>
			<path fill="#FFFFFF" d="M140.178,141.388h-6.504l-1.301,3.615h-1.217l4.866-13.757h1.824l4.867,13.757h-1.217L140.178,141.388z
				 M134.051,140.335h5.748l-2.873-8.386L134.051,140.335z"/>
		</g>
		<path fill="#FFFFFF" d="M51.842,72c0,0,0,7.786,0,19.853c0,17.875,19.52,27.449,19.52,27.449s19.595-9.574,19.595-27.449
			c0-12.065,0-19.853,0-19.853H51.842z M62.557,84.479h3.514l0.007,14.689h-3.523L62.557,84.479z M73.129,80.583l-0.002,22.5
			c0,2.916-2.363,4.427-5.277,4.427s-5.299-1.274-5.299-3.751h0.004c0-0.972,0.789-1.76,1.76-1.76c0.972,0,1.761,0.788,1.761,1.76
			l0,0c0,1.799,0.143,3.02,1.774,3.02c1.754,0,1.754-1.226,1.754-3.694l0.002-22.5c0-2.915,2.361-4.428,5.277-4.428
			c2.914,0,5.299,1.274,5.299,3.753h-0.006c0,0.973-0.787,1.758-1.76,1.758c-0.972,0-1.758-0.785-1.758-1.758h-0.002
			c0-1.801-0.146-3.02-1.773-3.02C73.127,76.89,73.129,78.112,73.129,80.583z M81.809,86.935h-1.627v12.244h-3.524V86.935h-1.625
			v-2.455h6.776V86.935z"/>
	</g>
</g>
<g enable-background="new    ">
	<g>
		<defs>
			<rect id="SVGID_1_" x="0" width="64" height="62"/>
		</defs>
		<clipPath id="SVGID_2_">
			<use xlink:href="#SVGID_1_"  overflow="visible"/>
		</clipPath>
		<g clip-path="url(#SVGID_2_)">
			<defs>
				<rect id="SVGID_3_" x="-854.335" y="-2006" width="1280" height="3725.999"/>
			</defs>
			<clipPath id="SVGID_4_">
				<use xlink:href="#SVGID_3_"  overflow="visible"/>
			</clipPath>
			<g clip-path="url(#SVGID_4_)">
				<defs>
					<rect id="SVGID_5_" x="0" width="64" height="62"/>
				</defs>
				<clipPath id="SVGID_6_">
					<use xlink:href="#SVGID_5_"  overflow="visible"/>
				</clipPath>
				<path clip-path="url(#SVGID_6_)" fill="#FFFFFF" d="M31.797,62C14.264,62,0,48.093,0,31S14.264,0,31.797,0
					s31.797,13.907,31.797,31S49.33,62,31.797,62z M31.797,2C15.367,2,2,15.009,2,31s13.367,29,29.797,29s29.797-13.009,29.797-29
					S48.227,2,31.797,2z"/>
			</g>
		</g>
		<g clip-path="url(#SVGID_2_)">
			<defs>
				<rect id="SVGID_7_" x="-854.335" y="-2006" width="1280" height="3725.999"/>
			</defs>
			<clipPath id="SVGID_8_">
				<use xlink:href="#SVGID_7_"  overflow="visible"/>
			</clipPath>
			<g clip-path="url(#SVGID_8_)">
				<defs>
					<polygon id="SVGID_9_" points="20.703,45 20.703,17 48.944,31 					"/>
				</defs>
				<clipPath id="SVGID_10_">
					<use xlink:href="#SVGID_9_"  overflow="visible"/>
				</clipPath>
				<g clip-path="url(#SVGID_10_)">
					<defs>
						<rect id="SVGID_11_" x="0" width="64" height="62"/>
					</defs>
					<clipPath id="SVGID_12_">
						<use xlink:href="#SVGID_11_"  overflow="visible"/>
					</clipPath>
					<rect x="15.703" y="12" clip-path="url(#SVGID_12_)" fill="#FFFFFF" width="38.24" height="38"/>
				</g>
			</g>
		</g>
	</g>
</g>
</svg>
